<svg width="100" height="97" viewBox="0 0 100 97" fill="none" xmlns="http://www.w3.org/2000/svg">
<rect width="100" height="96.1539" rx="48.0769" fill="#EADDFF"/>
<path fill-rule="evenodd" clip-rule="evenodd" d="M65.6146 32.3718C65.6146 40.3375 58.8989 46.7949 50.6146 46.7949C42.3304 46.7949 35.6146 40.3375 35.6146 32.3718C35.6146 24.4062 42.3304 17.9487 50.6146 17.9487C58.8989 17.9487 65.6146 24.4062 65.6146 32.3718ZM60.6146 32.3718C60.6146 37.6822 56.1375 41.9872 50.6146 41.9872C45.0918 41.9872 40.6146 37.6822 40.6146 32.3718C40.6146 27.0614 45.0918 22.7564 50.6146 22.7564C56.1375 22.7564 60.6146 27.0614 60.6146 32.3718Z" fill="#4F378A"/>
<path d="M50.6146 54.0064C34.4287 54.0064 20.6378 63.2093 15.3845 76.1027C16.6643 77.3246 18.0124 78.4804 19.4228 79.5643C23.3347 67.7268 35.6064 58.8141 50.6146 58.8141C65.6228 58.8141 77.8946 67.7269 81.8064 79.5643C83.2169 78.4804 84.565 77.3246 85.8447 76.1027C80.5915 63.2094 66.8006 54.0064 50.6146 54.0064Z" fill="#4F378A"/>
</svg>
